{
  "accessors": [
    {
      "bufferView": 2,
      "componentType": 5126,
      "count": 2184,
      "max": [
        2.8183701038360596,
        1.0902199745178223,
        1.0819000005722046
      ],
      "min": [
        -2.818380117416382,
        -1.0902199745178223,
        -4.085909843444824
      ],
      "type": "VEC3"
    },
    {
      "bufferView": 2,
      "byteOffset": 26208,
      "componentType": 5126,
      "count": 2184,
      "max": [
        0.996317982673645,
        0.9996171593666077,
        0.9964877963066101
      ],
      "min": [
        -0.996317982673645,
        -0.9996171593666077,
        -0.9983806014060974
      ],
      "type": "VEC3"
    },
    {
      "bufferView": 1,
      "componentType": 5126,
      "count": 2184,
      "max": [
        0.9682199954986572,
        0.9312899708747864
      ],
      "min": [
        0.03463999927043915,
        0.07401999831199646
      ],
      "type": "VEC2"
    },
    {
      "bufferView": 0,
      "componentType": 5125,
      "count": 13104,
      "type": "SCALAR"
    },
    {
      "bufferView": 2,
      "byteOffset": 52416,
      "componentType": 5126,
      "count": 2184,
      "max": [
        2.868190050125122,
        1.1402000188827515,
        1.1317299604415894
      ],
      "min": [
        -2.868190050125122,
        -1.1402000188827515,
        -4.135819911956787
      ],
      "type": "VEC3"
    },
    {
      "bufferView": 2,
      "byteOffset": 78624,
      "componentType": 5126,
      "count": 2184,
      "max": [
        0.9963341355323792,
        0.9996188282966614,
        0.9983657598495483
      ],
      "min": [
        -0.9963341355323792,
        -0.9996196627616882,
        -0.9964414834976196
      ],
      "type": "VEC3"
    },
    {
      "bufferView": 1,
      "byteOffset": 17472,
      "componentType": 5126,
      "count": 2184,
      "max": [
        0.9682199954986572,
        0.9312899708747864
      ],
      "min": [
        0.03463999927043915,
        0.07401999831199646
      ],
      "type": "VEC2"
    },
    {
      "bufferView": 0,
      "byteOffset": 52416,
      "componentType": 5125,
      "count": 13104,
      "type": "SCALAR"
    }
  ],
  "asset": {
    "extras": {
      "author": "ayvlasov (https://sketchfab.com/ayvlasov)",
      "license": "CC-BY-4.0 (http://creativecommons.org/licenses/by/4.0/)",
      "source": "https://sketchfab.com/3d-models/triplet-structure-f0a0bb31474748c8bb933a98656a60e2",
      "title": "Triplet Structure"
    },
    "generator": "Sketchfab-12.67.0",
    "version": "2.0"
  },
  "bufferViews": [
    {
      "buffer": 0,
      "byteLength": 104832,
      "name": "floatBufferViews",
      "target": 34963
    },
    {
      "buffer": 0,
      "byteLength": 34944,
      "byteOffset": 104832,
      "byteStride": 8,
      "name": "floatBufferViews",
      "target": 34962
    },
    {
      "buffer": 0,
      "byteLength": 104832,
      "byteOffset": 139776,
      "byteStride": 12,
      "name": "floatBufferViews",
      "target": 34962
    }
  ],
  "buffers": [
    {
      "byteLength": 244608,
      "uri": "scene.bin"
    }
  ],
  "images": [
    {
      "uri": "textures/MaterialTriplet_baseColor.png"
    },
    {
      "uri": "textures/MaterialTriplet_metallicRoughness.png"
    }
  ],
  "materials": [
    {
      "emissiveFactor": [
        1.0,
        1.0,
        1.0
      ],
      "name": "MaterialTriplet.001",
      "pbrMetallicRoughness": {
        "baseColorFactor": [
          0.9309813976287842,
          0.8758320808410645,
          0.8758320808410645,
          1.0
        ],
        "metallicFactor": 0.0
      }
    },
    {
      "alphaMode": "BLEND",
      "doubleSided": true,
      "emissiveFactor": [
        0.004852901282720268,
        0.0041372813284397125,
        0.28951943516731266
      ],
      "name": "MaterialTriplet",
      "pbrMetallicRoughness": {
        "baseColorFactor": [
          1.0,
          1.0,
          1.0,
          0.91
        ],
        "baseColorTexture": {
          "index": 0
        },
        "metallicFactor": 0.93,
        "metallicRoughnessTexture": {
          "index": 1
        }
      }
    }
  ],
  "meshes": [
    {
      "name": "Triplet_0",
      "primitives": [
        {
          "attributes": {
            "NORMAL": 1,
            "POSITION": 0,
            "TEXCOORD_0": 2
          },
          "indices": 3,
          "material": 1,
          "mode": 4
        }
      ]
    },
    {
      "name": "Triplet.001_0",
      "primitives": [
        {
          "attributes": {
            "NORMAL": 5,
            "POSITION": 4,
            "TEXCOORD_0": 6
          },
          "indices": 7,
          "material": 0,
          "mode": 4
        }
      ]
    }
  ],
  "nodes": [
    {
      "children": [
        1
      ],
      "matrix": [
        1.0,
        0.0,
        0.0,
        0.0,
        0.0,
        2.220446049250313e-16,
        -1.0,
        0.0,
        0.0,
        1.0,
        2.220446049250313e-16,
        0.0,
        0.0,
        0.0,
        0.0,
        1.0
      ],
      "name": "Sketchfab_model"
    },
    {
      "children": [
        2,
        4,
        6
      ],
      "name": "Root"
    },
    {
      "children": [
        3
      ],
      "matrix": [
        -0.29086000000000006,
        0.9551700000000001,
        -0.05519000000000001,
        0.0,
        -0.7711,
        -0.19988000000000003,
        0.6045200000000001,
        0.0,
        0.5663900000000001,
        0.21839000000000003,
        0.7946700000000001,
        0.0,
        4.076250000000001,
        1.00545,
        5.903860000000001,
        1.0
      ],
      "name": "Lamp"
    },
    {
      "name": "Lamp"
    },
    {
      "children": [
        5
      ],
      "matrix": [
        1.0,
        0.0,
        0.0,
        0.0,
        0.0,
        1.0,
        0.0,
        0.0,
        0.0,
        0.0,
        1.0,
        0.0,
        0.0,
        0.0,
        2.0,
        1.0
      ],
      "name": "Triplet"
    },
    {
      "mesh": 0,
      "name": "Triplet_0"
    },
    {
      "children": [
        7
      ],
      "matrix": [
        1.0,
        0.0,
        0.0,
        0.0,
        0.0,
        1.0,
        0.0,
        0.0,
        0.0,
        0.0,
        1.0,
        0.0,
        0.0,
        0.0,
        2.0,
        1.0
      ],
      "name": "Triplet.001"
    },
    {
      "mesh": 1,
      "name": "Triplet.001_0"
    }
  ],
  "samplers": [
    {
      "magFilter": 9729,
      "minFilter": 9987,
      "wrapS": 10497,
      "wrapT": 10497
    }
  ],
  "scene": 0,
  "scenes": [
    {
      "name": "Sketchfab_Scene",
      "nodes": [
        0
      ]
    }
  ],
  "textures": [
    {
      "sampler": 0,
      "source": 0
    },
    {
      "sampler": 0,
      "source": 1
    }
  ]
}
